<mxfile host="app.diagrams.net" modified="2024-05-21T15:43:28.832Z" agent="Mozilla/5.0 (Macintosh; Intel Mac OS X 10.15; rv:127.0) Gecko/20100101 Firefox/127.0" etag="6w4fOUpY9CN5wqUlCReh" version="24.4.4" type="onedrive">
  <diagram name="Page-1" id="OgfHf2jxD97-w3ylPHJV">
    <mxGraphModel grid="1" page="1" gridSize="10" guides="1" tooltips="1" connect="1" arrows="1" fold="1" pageScale="1" pageWidth="3300" pageHeight="4681" math="0" shadow="0">
      <root>
        <mxCell id="0" />
        <mxCell id="1" parent="0" />
        <mxCell id="36LfEnHS7vdPm_WztUGy-60" value="" style="group" connectable="0" vertex="1" parent="1">
          <mxGeometry x="1080" y="385" width="160" height="655" as="geometry" />
        </mxCell>
        <mxCell id="36LfEnHS7vdPm_WztUGy-59" value="" style="rounded=0;whiteSpace=wrap;html=1;" vertex="1" parent="36LfEnHS7vdPm_WztUGy-60">
          <mxGeometry width="160" height="640" as="geometry" />
        </mxCell>
        <mxCell id="36LfEnHS7vdPm_WztUGy-35" value="Message Broker" style="rounded=0;whiteSpace=wrap;html=1;" vertex="1" parent="36LfEnHS7vdPm_WztUGy-60">
          <mxGeometry width="160" height="45" as="geometry" />
        </mxCell>
        <mxCell id="36LfEnHS7vdPm_WztUGy-40" value="Activity Completed Event" style="rounded=0;whiteSpace=wrap;html=1;" vertex="1" parent="36LfEnHS7vdPm_WztUGy-60">
          <mxGeometry y="520" width="160" height="60" as="geometry" />
        </mxCell>
        <mxCell id="36LfEnHS7vdPm_WztUGy-39" value="Loot Generated Event" style="rounded=0;whiteSpace=wrap;html=1;" vertex="1" parent="36LfEnHS7vdPm_WztUGy-60">
          <mxGeometry y="420" width="160" height="60" as="geometry" />
        </mxCell>
        <mxCell id="36LfEnHS7vdPm_WztUGy-37" value="Character CRUD Event" style="rounded=0;whiteSpace=wrap;html=1;" vertex="1" parent="36LfEnHS7vdPm_WztUGy-60">
          <mxGeometry y="180" width="160" height="60" as="geometry" />
        </mxCell>
        <mxCell id="36LfEnHS7vdPm_WztUGy-36" value="Player CRUD Event" style="rounded=0;whiteSpace=wrap;html=1;" vertex="1" parent="36LfEnHS7vdPm_WztUGy-60">
          <mxGeometry y="280" width="160" height="60" as="geometry" />
        </mxCell>
        <mxCell id="36LfEnHS7vdPm_WztUGy-2" value="&lt;div&gt;API Gateway&lt;br&gt;&lt;/div&gt;Needs to support UDP and TCP traffic" style="rounded=0;whiteSpace=wrap;html=1;" vertex="1" parent="1">
          <mxGeometry x="320" y="360" width="120" height="720" as="geometry" />
        </mxCell>
        <mxCell id="36LfEnHS7vdPm_WztUGy-3" value="" style="endArrow=classic;startArrow=classic;html=1;rounded=0;entryX=0;entryY=0.5;entryDx=0;entryDy=0;exitX=1;exitY=0.5;exitDx=0;exitDy=0;" edge="1" parent="1" source="36LfEnHS7vdPm_WztUGy-10" target="36LfEnHS7vdPm_WztUGy-2">
          <mxGeometry width="50" height="50" relative="1" as="geometry">
            <mxPoint x="180" y="720" as="sourcePoint" />
            <mxPoint x="220" y="650" as="targetPoint" />
          </mxGeometry>
        </mxCell>
        <mxCell id="36LfEnHS7vdPm_WztUGy-4" value="&lt;div&gt;Player Service&lt;/div&gt;" style="rounded=0;whiteSpace=wrap;html=1;" vertex="1" parent="1">
          <mxGeometry x="520" y="370" width="160" height="60" as="geometry" />
        </mxCell>
        <mxCell id="36LfEnHS7vdPm_WztUGy-5" value="Loot Generator Service" style="rounded=0;whiteSpace=wrap;html=1;" vertex="1" parent="1">
          <mxGeometry x="520" y="860" width="160" height="60" as="geometry" />
        </mxCell>
        <mxCell id="36LfEnHS7vdPm_WztUGy-6" value="&lt;div&gt;Character Service&lt;/div&gt;" style="rounded=0;whiteSpace=wrap;html=1;" vertex="1" parent="1">
          <mxGeometry x="520" y="460" width="160" height="60" as="geometry" />
        </mxCell>
        <mxCell id="36LfEnHS7vdPm_WztUGy-8" value="Activity Matching Service" style="rounded=0;whiteSpace=wrap;html=1;" vertex="1" parent="1">
          <mxGeometry x="710" y="1010" width="160" height="60" as="geometry" />
        </mxCell>
        <mxCell id="36LfEnHS7vdPm_WztUGy-9" value="Inventory Service" style="rounded=0;whiteSpace=wrap;html=1;" vertex="1" parent="1">
          <mxGeometry x="520" y="660" width="160" height="60" as="geometry" />
        </mxCell>
        <mxCell id="36LfEnHS7vdPm_WztUGy-10" value="&lt;div&gt;Client&lt;/div&gt;" style="rounded=0;whiteSpace=wrap;html=1;" vertex="1" parent="1">
          <mxGeometry x="110" y="690" width="160" height="60" as="geometry" />
        </mxCell>
        <mxCell id="36LfEnHS7vdPm_WztUGy-11" value="Player Service Database" style="shape=cylinder3;whiteSpace=wrap;html=1;boundedLbl=1;backgroundOutline=1;size=15;" vertex="1" parent="1">
          <mxGeometry x="720" y="352.5" width="90" height="95" as="geometry" />
        </mxCell>
        <mxCell id="36LfEnHS7vdPm_WztUGy-12" value="" style="endArrow=classic;startArrow=classic;html=1;rounded=0;exitX=1;exitY=0.5;exitDx=0;exitDy=0;entryX=0;entryY=0.5;entryDx=0;entryDy=0;entryPerimeter=0;" edge="1" parent="1" source="36LfEnHS7vdPm_WztUGy-4" target="36LfEnHS7vdPm_WztUGy-11">
          <mxGeometry width="50" height="50" relative="1" as="geometry">
            <mxPoint x="630" y="705" as="sourcePoint" />
            <mxPoint x="680" y="655" as="targetPoint" />
          </mxGeometry>
        </mxCell>
        <mxCell id="36LfEnHS7vdPm_WztUGy-15" value="" style="endArrow=classic;startArrow=classic;html=1;rounded=0;exitX=1.008;exitY=0.08;exitDx=0;exitDy=0;entryX=0;entryY=0.5;entryDx=0;entryDy=0;exitPerimeter=0;" edge="1" parent="1" source="36LfEnHS7vdPm_WztUGy-2" target="36LfEnHS7vdPm_WztUGy-4">
          <mxGeometry width="50" height="50" relative="1" as="geometry">
            <mxPoint x="630" y="680" as="sourcePoint" />
            <mxPoint x="680" y="630" as="targetPoint" />
          </mxGeometry>
        </mxCell>
        <mxCell id="36LfEnHS7vdPm_WztUGy-17" value="Character Service Database" style="shape=cylinder3;whiteSpace=wrap;html=1;boundedLbl=1;backgroundOutline=1;size=15;" vertex="1" parent="1">
          <mxGeometry x="555" y="550" width="90" height="100" as="geometry" />
        </mxCell>
        <mxCell id="36LfEnHS7vdPm_WztUGy-18" value="" style="endArrow=classic;startArrow=classic;html=1;rounded=0;exitX=0.5;exitY=1;exitDx=0;exitDy=0;entryX=0.5;entryY=0;entryDx=0;entryDy=0;entryPerimeter=0;" edge="1" parent="1" source="36LfEnHS7vdPm_WztUGy-6" target="36LfEnHS7vdPm_WztUGy-17">
          <mxGeometry width="50" height="50" relative="1" as="geometry">
            <mxPoint x="680" y="575" as="sourcePoint" />
            <mxPoint x="680" y="785" as="targetPoint" />
          </mxGeometry>
        </mxCell>
        <mxCell id="36LfEnHS7vdPm_WztUGy-19" value="" style="endArrow=classic;startArrow=classic;html=1;rounded=0;exitX=1;exitY=0.25;exitDx=0;exitDy=0;entryX=0;entryY=0.5;entryDx=0;entryDy=0;" edge="1" parent="1" source="36LfEnHS7vdPm_WztUGy-2" target="36LfEnHS7vdPm_WztUGy-6">
          <mxGeometry width="50" height="50" relative="1" as="geometry">
            <mxPoint x="700" y="690" as="sourcePoint" />
            <mxPoint x="750" y="640" as="targetPoint" />
          </mxGeometry>
        </mxCell>
        <mxCell id="36LfEnHS7vdPm_WztUGy-26" value="Inventory Service Database" style="shape=cylinder3;whiteSpace=wrap;html=1;boundedLbl=1;backgroundOutline=1;size=15;" vertex="1" parent="1">
          <mxGeometry x="555" y="750" width="90" height="100" as="geometry" />
        </mxCell>
        <mxCell id="36LfEnHS7vdPm_WztUGy-27" value="" style="endArrow=classic;startArrow=classic;html=1;rounded=0;exitX=0.5;exitY=1;exitDx=0;exitDy=0;entryX=0.5;entryY=0;entryDx=0;entryDy=0;entryPerimeter=0;" edge="1" parent="1" source="36LfEnHS7vdPm_WztUGy-9" target="36LfEnHS7vdPm_WztUGy-26">
          <mxGeometry width="50" height="50" relative="1" as="geometry">
            <mxPoint x="680" y="705" as="sourcePoint" />
            <mxPoint x="680" y="915" as="targetPoint" />
          </mxGeometry>
        </mxCell>
        <mxCell id="36LfEnHS7vdPm_WztUGy-28" value="Loot Generator Service Database" style="shape=cylinder3;whiteSpace=wrap;html=1;boundedLbl=1;backgroundOutline=1;size=15;" vertex="1" parent="1">
          <mxGeometry x="745" y="880" width="90" height="100" as="geometry" />
        </mxCell>
        <mxCell id="36LfEnHS7vdPm_WztUGy-29" value="" style="endArrow=classic;startArrow=classic;html=1;rounded=0;exitX=1;exitY=0.75;exitDx=0;exitDy=0;entryX=0;entryY=0.5;entryDx=0;entryDy=0;entryPerimeter=0;" edge="1" parent="1" source="36LfEnHS7vdPm_WztUGy-5" target="36LfEnHS7vdPm_WztUGy-28">
          <mxGeometry width="50" height="50" relative="1" as="geometry">
            <mxPoint x="680" y="835" as="sourcePoint" />
            <mxPoint x="680" y="1045" as="targetPoint" />
          </mxGeometry>
        </mxCell>
        <mxCell id="36LfEnHS7vdPm_WztUGy-30" value="Activity Matching Service Database" style="shape=cylinder3;whiteSpace=wrap;html=1;boundedLbl=1;backgroundOutline=1;size=15;" vertex="1" parent="1">
          <mxGeometry x="920" y="1040" width="90" height="100" as="geometry" />
        </mxCell>
        <mxCell id="36LfEnHS7vdPm_WztUGy-31" value="" style="endArrow=classic;startArrow=classic;html=1;rounded=0;exitX=1;exitY=0.75;exitDx=0;exitDy=0;entryX=0;entryY=0.5;entryDx=0;entryDy=0;entryPerimeter=0;" edge="1" parent="1" source="36LfEnHS7vdPm_WztUGy-8" target="36LfEnHS7vdPm_WztUGy-30">
          <mxGeometry width="50" height="50" relative="1" as="geometry">
            <mxPoint x="680" y="960" as="sourcePoint" />
            <mxPoint x="680" y="1170" as="targetPoint" />
          </mxGeometry>
        </mxCell>
        <mxCell id="36LfEnHS7vdPm_WztUGy-32" value="" style="endArrow=classic;startArrow=classic;html=1;rounded=0;exitX=1;exitY=0.5;exitDx=0;exitDy=0;entryX=0;entryY=0.5;entryDx=0;entryDy=0;" edge="1" parent="1" source="36LfEnHS7vdPm_WztUGy-2" target="36LfEnHS7vdPm_WztUGy-9">
          <mxGeometry width="50" height="50" relative="1" as="geometry">
            <mxPoint x="680" y="790" as="sourcePoint" />
            <mxPoint x="730" y="740" as="targetPoint" />
          </mxGeometry>
        </mxCell>
        <mxCell id="36LfEnHS7vdPm_WztUGy-33" value="" style="endArrow=classic;startArrow=classic;html=1;rounded=0;exitX=1;exitY=0.75;exitDx=0;exitDy=0;entryX=0;entryY=0.5;entryDx=0;entryDy=0;" edge="1" parent="1" source="36LfEnHS7vdPm_WztUGy-2" target="36LfEnHS7vdPm_WztUGy-5">
          <mxGeometry width="50" height="50" relative="1" as="geometry">
            <mxPoint x="680" y="790" as="sourcePoint" />
            <mxPoint x="730" y="740" as="targetPoint" />
          </mxGeometry>
        </mxCell>
        <mxCell id="36LfEnHS7vdPm_WztUGy-34" value="" style="endArrow=classic;startArrow=classic;html=1;rounded=0;entryX=0;entryY=0.5;entryDx=0;entryDy=0;exitX=1.021;exitY=0.862;exitDx=0;exitDy=0;exitPerimeter=0;" edge="1" parent="1" source="36LfEnHS7vdPm_WztUGy-2" target="36LfEnHS7vdPm_WztUGy-8">
          <mxGeometry width="50" height="50" relative="1" as="geometry">
            <mxPoint x="450" y="1020" as="sourcePoint" />
            <mxPoint x="500" y="970" as="targetPoint" />
          </mxGeometry>
        </mxCell>
        <mxCell id="36LfEnHS7vdPm_WztUGy-41" value="" style="endArrow=classic;html=1;rounded=0;exitX=1;exitY=0.5;exitDx=0;exitDy=0;exitPerimeter=0;entryX=0;entryY=0.25;entryDx=0;entryDy=0;" edge="1" parent="1" source="36LfEnHS7vdPm_WztUGy-11" target="36LfEnHS7vdPm_WztUGy-36">
          <mxGeometry width="50" height="50" relative="1" as="geometry">
            <mxPoint x="800" y="790" as="sourcePoint" />
            <mxPoint x="850" y="740" as="targetPoint" />
          </mxGeometry>
        </mxCell>
        <mxCell id="36LfEnHS7vdPm_WztUGy-49" value="" style="endArrow=classic;html=1;rounded=0;exitX=1;exitY=0.5;exitDx=0;exitDy=0;exitPerimeter=0;entryX=0;entryY=0.25;entryDx=0;entryDy=0;" edge="1" parent="1" source="36LfEnHS7vdPm_WztUGy-17" target="36LfEnHS7vdPm_WztUGy-37">
          <mxGeometry width="50" height="50" relative="1" as="geometry">
            <mxPoint x="870" y="800" as="sourcePoint" />
            <mxPoint x="920" y="750" as="targetPoint" />
          </mxGeometry>
        </mxCell>
        <mxCell id="36LfEnHS7vdPm_WztUGy-51" value="" style="endArrow=classic;html=1;rounded=0;exitX=1;exitY=0.5;exitDx=0;exitDy=0;entryX=0.006;entryY=0.617;entryDx=0;entryDy=0;entryPerimeter=0;" edge="1" parent="1" source="36LfEnHS7vdPm_WztUGy-5" target="36LfEnHS7vdPm_WztUGy-39">
          <mxGeometry width="50" height="50" relative="1" as="geometry">
            <mxPoint x="870" y="910" as="sourcePoint" />
            <mxPoint x="920" y="860" as="targetPoint" />
          </mxGeometry>
        </mxCell>
        <mxCell id="36LfEnHS7vdPm_WztUGy-52" value="" style="endArrow=classic;html=1;rounded=0;exitX=0;exitY=0.75;exitDx=0;exitDy=0;fillColor=#1ba1e2;strokeColor=#006EAF;entryX=1;entryY=0.5;entryDx=0;entryDy=0;startArrow=classicThin;startFill=1;" edge="1" parent="1" source="36LfEnHS7vdPm_WztUGy-40" target="36LfEnHS7vdPm_WztUGy-8">
          <mxGeometry width="50" height="50" relative="1" as="geometry">
            <mxPoint x="870" y="910" as="sourcePoint" />
            <mxPoint x="890" y="900" as="targetPoint" />
          </mxGeometry>
        </mxCell>
        <mxCell id="36LfEnHS7vdPm_WztUGy-53" value="" style="endArrow=classic;html=1;rounded=0;exitX=0;exitY=0.25;exitDx=0;exitDy=0;fillColor=#1ba1e2;strokeColor=#006EAF;entryX=1;entryY=0.75;entryDx=0;entryDy=0;startArrow=classic;startFill=1;" edge="1" parent="1" source="36LfEnHS7vdPm_WztUGy-39" target="36LfEnHS7vdPm_WztUGy-9">
          <mxGeometry width="50" height="50" relative="1" as="geometry">
            <mxPoint x="990" y="760" as="sourcePoint" />
            <mxPoint x="830" y="730" as="targetPoint" />
          </mxGeometry>
        </mxCell>
        <mxCell id="36LfEnHS7vdPm_WztUGy-55" value="" style="endArrow=classic;html=1;rounded=0;fillColor=#1ba1e2;strokeColor=#006EAF;entryX=1;entryY=0.5;entryDx=0;entryDy=0;exitX=0.013;exitY=0.633;exitDx=0;exitDy=0;exitPerimeter=0;" edge="1" parent="1" source="36LfEnHS7vdPm_WztUGy-36" target="36LfEnHS7vdPm_WztUGy-9">
          <mxGeometry width="50" height="50" relative="1" as="geometry">
            <mxPoint x="1000" y="450" as="sourcePoint" />
            <mxPoint x="820" y="675" as="targetPoint" />
          </mxGeometry>
        </mxCell>
        <mxCell id="36LfEnHS7vdPm_WztUGy-58" value="" style="endArrow=classic;html=1;rounded=0;fillColor=#1ba1e2;strokeColor=#006EAF;exitX=0;exitY=0.5;exitDx=0;exitDy=0;entryX=1;entryY=0.25;entryDx=0;entryDy=0;startArrow=classic;startFill=1;" edge="1" parent="1" source="36LfEnHS7vdPm_WztUGy-37" target="36LfEnHS7vdPm_WztUGy-9">
          <mxGeometry width="50" height="50" relative="1" as="geometry">
            <mxPoint x="1000" y="570" as="sourcePoint" />
            <mxPoint x="820" y="705" as="targetPoint" />
          </mxGeometry>
        </mxCell>
        <mxCell id="36LfEnHS7vdPm_WztUGy-61" value="" style="endArrow=classic;html=1;rounded=0;entryX=1;entryY=0.5;entryDx=0;entryDy=0;exitX=0;exitY=0.5;exitDx=0;exitDy=0;fillColor=#1ba1e2;strokeColor=#006EAF;" edge="1" parent="1" source="36LfEnHS7vdPm_WztUGy-36" target="36LfEnHS7vdPm_WztUGy-6">
          <mxGeometry width="50" height="50" relative="1" as="geometry">
            <mxPoint x="760" y="780" as="sourcePoint" />
            <mxPoint x="810" y="730" as="targetPoint" />
          </mxGeometry>
        </mxCell>
        <mxCell id="36LfEnHS7vdPm_WztUGy-62" value="" style="endArrow=classic;html=1;rounded=0;entryX=1;entryY=0.25;entryDx=0;entryDy=0;exitX=0;exitY=0.75;exitDx=0;exitDy=0;fillColor=#1ba1e2;strokeColor=#006EAF;" edge="1" parent="1" source="36LfEnHS7vdPm_WztUGy-36" target="36LfEnHS7vdPm_WztUGy-8">
          <mxGeometry width="50" height="50" relative="1" as="geometry">
            <mxPoint x="1000" y="600" as="sourcePoint" />
            <mxPoint x="810" y="730" as="targetPoint" />
          </mxGeometry>
        </mxCell>
        <mxCell id="OVY0arfxroSMeuFRClUw-1" value="" style="group;rotation=90;" connectable="0" vertex="1" parent="1">
          <mxGeometry x="980" y="1420.0000000000002" width="90" height="95" as="geometry" />
        </mxCell>
        <mxCell id="OVY0arfxroSMeuFRClUw-4" value="In-Memory Database " style="shape=cylinder3;whiteSpace=wrap;html=1;boundedLbl=1;backgroundOutline=1;size=15;" vertex="1" parent="OVY0arfxroSMeuFRClUw-1">
          <mxGeometry x="10" y="10" width="70" height="85" as="geometry" />
        </mxCell>
        <mxCell id="OVY0arfxroSMeuFRClUw-5" value="" style="endArrow=classic;startArrow=classic;html=1;rounded=0;entryX=0;entryY=0.5;entryDx=0;entryDy=0;entryPerimeter=0;exitX=1;exitY=0.75;exitDx=0;exitDy=0;" edge="1" parent="1" source="OVY0arfxroSMeuFRClUw-9" target="OVY0arfxroSMeuFRClUw-4">
          <mxGeometry width="50" height="50" relative="1" as="geometry">
            <mxPoint x="1150" y="1622.1000000000001" as="sourcePoint" />
            <mxPoint x="1080" y="1604.6000000000004" as="targetPoint" />
          </mxGeometry>
        </mxCell>
        <mxCell id="OVY0arfxroSMeuFRClUw-6" value="" style="rounded=0;whiteSpace=wrap;html=1;align=center;" vertex="1" parent="1">
          <mxGeometry x="670" y="1335" width="240" height="120" as="geometry" />
        </mxCell>
        <mxCell id="OVY0arfxroSMeuFRClUw-8" value="" style="rounded=0;whiteSpace=wrap;html=1;align=center;" vertex="1" parent="1">
          <mxGeometry x="680" y="1345" width="240" height="120" as="geometry" />
        </mxCell>
        <mxCell id="OVY0arfxroSMeuFRClUw-9" value="Area Servers" style="rounded=0;whiteSpace=wrap;html=1;align=center;" vertex="1" parent="1">
          <mxGeometry x="690" y="1355" width="240" height="120" as="geometry" />
        </mxCell>
        <mxCell id="OVY0arfxroSMeuFRClUw-10" value="Activity Area Set Server&lt;br&gt;Acts as proxy for area servers&lt;br&gt;May hold it&#39;s own state" style="rounded=0;whiteSpace=wrap;html=1;" vertex="1" parent="1">
          <mxGeometry x="700" y="1190" width="170" height="60" as="geometry" />
        </mxCell>
        <mxCell id="OVY0arfxroSMeuFRClUw-11" value="" style="endArrow=classic;startArrow=classic;html=1;rounded=0;entryX=0.5;entryY=1;entryDx=0;entryDy=0;exitX=0.5;exitY=0;exitDx=0;exitDy=0;" edge="1" parent="1" source="OVY0arfxroSMeuFRClUw-6" target="OVY0arfxroSMeuFRClUw-10">
          <mxGeometry width="50" height="50" relative="1" as="geometry">
            <mxPoint x="960" y="1470" as="sourcePoint" />
            <mxPoint x="1010" y="1420" as="targetPoint" />
          </mxGeometry>
        </mxCell>
        <mxCell id="OVY0arfxroSMeuFRClUw-12" value="&lt;div&gt;UDP&lt;/div&gt;" style="edgeLabel;html=1;align=center;verticalAlign=middle;resizable=0;points=[];" connectable="0" vertex="1" parent="OVY0arfxroSMeuFRClUw-11">
          <mxGeometry x="0.0163" y="1" relative="1" as="geometry">
            <mxPoint as="offset" />
          </mxGeometry>
        </mxCell>
        <mxCell id="OVY0arfxroSMeuFRClUw-13" value="" style="group" connectable="0" vertex="1" parent="1">
          <mxGeometry x="990" y="1300" width="90" height="95" as="geometry" />
        </mxCell>
        <mxCell id="OVY0arfxroSMeuFRClUw-16" value="In-Memory Database " style="shape=cylinder3;whiteSpace=wrap;html=1;boundedLbl=1;backgroundOutline=1;size=15;" vertex="1" parent="OVY0arfxroSMeuFRClUw-13">
          <mxGeometry x="10" y="10" width="70" height="85" as="geometry" />
        </mxCell>
        <mxCell id="OVY0arfxroSMeuFRClUw-17" value="" style="endArrow=classic;startArrow=classic;html=1;rounded=0;entryX=0;entryY=0.5;entryDx=0;entryDy=0;entryPerimeter=0;exitX=1;exitY=0.75;exitDx=0;exitDy=0;" edge="1" parent="1" source="OVY0arfxroSMeuFRClUw-10" target="OVY0arfxroSMeuFRClUw-16">
          <mxGeometry width="50" height="50" relative="1" as="geometry">
            <mxPoint x="960" y="1470" as="sourcePoint" />
            <mxPoint x="1040" y="1427.5" as="targetPoint" />
          </mxGeometry>
        </mxCell>
        <mxCell id="OVY0arfxroSMeuFRClUw-19" value="" style="endArrow=classic;startArrow=classic;html=1;rounded=0;exitX=1;exitY=0.5;exitDx=0;exitDy=0;entryX=0;entryY=0.5;entryDx=0;entryDy=0;entryPerimeter=0;" edge="1" parent="1" source="OVY0arfxroSMeuFRClUw-10" target="OVY0arfxroSMeuFRClUw-20">
          <mxGeometry width="50" height="50" relative="1" as="geometry">
            <mxPoint x="1100" y="1460" as="sourcePoint" />
            <mxPoint x="1060" y="1330" as="targetPoint" />
          </mxGeometry>
        </mxCell>
        <mxCell id="OVY0arfxroSMeuFRClUw-20" value="Presisent Area Storage&lt;br&gt;(i.e.Checkpoint)" style="shape=cylinder3;whiteSpace=wrap;html=1;boundedLbl=1;backgroundOutline=1;size=15;" vertex="1" parent="1">
          <mxGeometry x="1070" y="1200" width="87.5" height="105" as="geometry" />
        </mxCell>
        <mxCell id="dqcGfSOjbVfvCsejODUo-1" value="" style="curved=1;endArrow=classic;html=1;rounded=0;exitX=1;exitY=0.25;exitDx=0;exitDy=0;entryX=1;entryY=0.5;entryDx=0;entryDy=0;fillColor=#dae8fc;strokeColor=#6c8ebf;" edge="1" parent="1" source="OVY0arfxroSMeuFRClUw-10" target="36LfEnHS7vdPm_WztUGy-40">
          <mxGeometry width="50" height="50" relative="1" as="geometry">
            <mxPoint x="900" y="1290" as="sourcePoint" />
            <mxPoint x="1230" y="1060" as="targetPoint" />
            <Array as="points">
              <mxPoint x="1070" y="1190" />
              <mxPoint x="1350" y="1060" />
            </Array>
          </mxGeometry>
        </mxCell>
        <mxCell id="dqcGfSOjbVfvCsejODUo-2" value="" style="endArrow=classic;html=1;rounded=0;entryX=1.025;entryY=0.95;entryDx=0;entryDy=0;entryPerimeter=0;exitX=0;exitY=0.5;exitDx=0;exitDy=0;startArrow=classic;startFill=1;fillColor=#dae8fc;strokeColor=#000000;" edge="1" parent="1" source="OVY0arfxroSMeuFRClUw-10" target="36LfEnHS7vdPm_WztUGy-2">
          <mxGeometry width="50" height="50" relative="1" as="geometry">
            <mxPoint x="750" y="1270" as="sourcePoint" />
            <mxPoint x="800" y="1220" as="targetPoint" />
          </mxGeometry>
        </mxCell>
        <mxCell id="dqcGfSOjbVfvCsejODUo-3" value="UDP" style="edgeLabel;html=1;align=center;verticalAlign=middle;resizable=0;points=[];" connectable="0" vertex="1" parent="dqcGfSOjbVfvCsejODUo-2">
          <mxGeometry x="0.0583" relative="1" as="geometry">
            <mxPoint y="-1" as="offset" />
          </mxGeometry>
        </mxCell>
      </root>
    </mxGraphModel>
  </diagram>
</mxfile>
